<svg width="35" height="34" viewBox="0 0 35 34" fill="none" xmlns="http://www.w3.org/2000/svg">
<rect x="2" y="2" width="31" height="30" rx="8" fill="white" stroke="url(#paint0_linear_2427_205)" stroke-width="4"/>
<path d="M16.4175 15.9426C16.1911 16.0334 15.9383 16.0329 15.7123 15.9411L8.90334 13.1753C8.35722 12.9534 8 12.4228 8 11.8333V11.8333C8 10.8037 9.04397 10.1029 9.99688 10.4927L15.9277 12.9189C16.5815 13.1864 17.0086 13.8226 17.0086 14.529V15.0685C17.0086 15.4532 16.7746 15.7993 16.4175 15.9426V15.9426ZM8 17.6496C8 17.0434 8.38395 16.5037 8.95662 16.305L14.2241 14.477L15.5215 14.1383C16.2738 13.942 17.0086 14.5096 17.0086 15.2871V15.2871C17.0086 15.7692 16.7171 16.2034 16.2709 16.386L9.96212 18.9668C9.0258 19.3499 8 18.6612 8 17.6496V17.6496Z" fill="black"/>
<path d="M25.7152 21.2068C26.4248 21.2068 27 21.782 27 22.4916V22.4916C27 23.2011 26.4248 23.7763 25.7152 23.7763H19.0304C18.3209 23.7763 17.7457 23.2011 17.7457 22.4916V22.4916C17.7457 21.782 18.3209 21.2068 19.0304 21.2068H25.7152Z" fill="black"/>
<defs>
<linearGradient id="paint0_linear_2427_205" x1="4" y1="2.5" x2="28.5" y2="34" gradientUnits="userSpaceOnUse">
<stop stop-color="#03B0F2"/>
<stop offset="1" stop-color="#2FEB9C"/>
</linearGradient>
</defs>
</svg>
